<svg width="115" height="108" viewBox="0 0 115 108" fill="none" xmlns="http://www.w3.org/2000/svg">
<rect width="115" height="108" fill="black" fill-opacity="0.05"/>
<path d="M29.79 54C29.7876 52.6443 30.0527 51.3014 30.57 50.0482C31.0873 48.795 31.8468 47.6562 32.8048 46.6969C33.7628 45.7376 34.9007 44.9767 36.1532 44.4577C37.4057 43.9388 38.7482 43.6719 40.104 43.6725H40.0455C41.4005 43.6731 42.7421 43.9408 43.9936 44.4603C45.245 44.9798 46.3818 45.7409 47.3389 46.7001C48.296 47.6592 49.0546 48.7977 49.5713 50.0503C50.0881 51.3029 50.3529 52.645 50.3505 54C50.3505 56.7335 49.2649 59.3551 47.3325 61.2884C45.4001 63.2216 42.779 64.3083 40.0455 64.3095H40.104C38.7498 64.3101 37.4087 64.0439 36.1573 63.5261C34.906 63.0082 33.769 62.2489 32.8112 61.2915C31.8534 60.3342 31.0936 59.1974 30.5752 57.9463C30.0568 56.6952 29.79 55.3543 29.79 54ZM78.03 35.721H97.227C99.9605 35.7198 102.582 34.6331 104.514 32.6999C106.446 30.7666 107.532 28.145 107.532 25.4115C107.535 24.0562 107.271 22.7135 106.754 21.4604C106.238 20.2073 105.479 19.0683 104.522 18.1087C103.565 17.149 102.428 16.3875 101.176 15.8677C99.9243 15.348 98.5824 15.0801 97.227 15.0795H78.03C76.6742 15.0795 75.3318 15.3469 74.0795 15.8664C72.8272 16.3859 71.6897 17.1474 70.7321 18.1071C69.7745 19.0668 69.0156 20.2059 68.4988 21.4593C67.982 22.7127 67.7175 24.0558 67.7205 25.4115C67.7217 28.1442 68.8078 30.7646 70.7401 32.6969C72.6724 34.6292 75.2928 35.7153 78.0255 35.7165L78.03 35.721ZM12.096 92.9025H49.3785C50.7327 92.9025 52.0737 92.6357 53.3248 92.1173C54.5759 91.599 55.7126 90.8392 56.67 89.8814C57.6274 88.9236 58.3867 87.7865 58.9045 86.5352C59.4224 85.2839 59.6886 83.9428 59.688 82.5885C59.6904 81.2335 59.4256 79.8914 58.9088 78.6388C58.3921 77.3862 57.6335 76.2477 56.6764 75.2886C55.7193 74.3294 54.5825 73.5683 53.3311 73.0488C52.0796 72.5293 50.738 72.2616 49.383 72.261H12.0915C10.7361 72.261 9.39404 72.5283 8.14206 73.0475C6.89008 73.5667 5.75277 74.3277 4.79521 75.287C3.83765 76.2462 3.07863 77.3848 2.56159 78.6377C2.04455 79.8906 1.77963 81.2332 1.782 82.5885C1.78141 83.9424 2.04749 85.2831 2.56504 86.5341C3.0826 87.7852 3.84149 88.922 4.7984 89.8798C5.75531 90.8375 6.89149 91.5974 8.14207 92.1161C9.39265 92.6347 10.7331 92.9019 12.087 92.9025H12.096ZM61.0605 64.3095H64.7055L73.2285 43.6725H68.355L63.162 57.2085H63.1035L57.996 43.6725H52.803L61.0605 64.3095ZM79.9965 64.3095H84.546V43.6725H79.9965V64.3095ZM92.9475 64.3095H107.505V60.1245H97.5015V55.926H106.456V51.723H97.5015V47.8755H106.983V43.6725H92.979L92.9475 64.3095ZM5.895 35.7345H10.44V19.1115H16.335V15.084H0V19.1115H5.895V35.7345ZM22.7565 35.7345H27.306V26.8155H36.117V35.7435H40.6665V15.0885H36.1215V22.788H27.2745V15.0795H22.7565V35.7345ZM46.8225 35.7345H61.4115V31.536H51.345V27.333H60.3V23.1345H51.345V19.2825H60.8265V15.0795H46.8225V35.7345ZM0.729 64.332H5.2515V48.492H5.31L10.5615 64.332H14.004L19.431 48.492H19.4895V64.332H24.039V43.677H17.19L12.3975 57.15H12.339L7.587 43.6725H0.702L0.729 64.332ZM66.132 92.9205H73.5165C75.0125 92.9283 76.5005 92.7021 77.9265 92.25C79.2737 91.8299 80.531 91.1631 81.6345 90.2835C82.7071 89.4112 83.5777 88.3166 84.186 87.075C84.8594 85.6984 85.203 84.1839 85.1895 82.6515C85.237 80.9925 84.9013 79.3448 84.2085 77.8365C83.5995 76.5673 82.6953 75.4624 81.5715 74.6145C80.3934 73.7693 79.0574 73.1694 77.643 72.8505C76.1035 72.4654 74.5229 72.269 72.936 72.2655H66.1005L66.132 92.9205ZM70.6905 76.4685H73.3725C74.2936 76.4645 75.211 76.5856 76.0995 76.8285C76.9156 77.0508 77.6832 77.4232 78.363 77.9265C79.0095 78.4179 79.5332 79.0526 79.893 79.7805C80.295 80.6021 80.4955 81.5076 80.478 82.422C80.502 83.4399 80.3023 84.4507 79.893 85.383C79.543 86.1525 79.0063 86.8223 78.3315 87.3315C77.6355 87.8435 76.8423 88.208 76.0005 88.4025C75.0426 88.6212 74.0625 88.7269 73.08 88.7175H70.659L70.6905 76.4685ZM91.7775 92.9205H100.237C101.164 92.9196 102.089 92.8231 102.996 92.6325C103.876 92.4572 104.72 92.1314 105.489 91.6695C106.22 91.2326 106.839 90.6318 107.298 89.9145C107.788 89.0917 108.031 88.1447 107.995 87.1875C108.001 86.551 107.893 85.9185 107.676 85.32C107.474 84.7544 107.162 84.2344 106.758 83.79C106.353 83.3454 105.869 82.9793 105.331 82.71C104.749 82.4123 104.121 82.2145 103.473 82.125V82.071C104.476 81.783 105.375 81.211 106.061 80.424C106.73 79.6037 107.076 78.5662 107.033 77.508C107.079 76.5574 106.846 75.614 106.362 74.7945C105.927 74.1199 105.324 73.5707 104.611 73.2015C103.851 72.8119 103.029 72.5547 102.182 72.441C101.287 72.3189 100.385 72.2572 99.4815 72.2565H91.7775V92.9205ZM96.327 76.1175H99.4185C99.7807 76.1194 100.142 76.1525 100.499 76.2165C100.844 76.2768 101.178 76.3906 101.488 76.554C101.781 76.7096 102.029 76.9373 102.208 77.2155C102.403 77.5344 102.499 77.9041 102.483 78.2775C102.492 78.6425 102.407 79.0038 102.235 79.326C102.079 79.6112 101.853 79.8526 101.578 80.028C101.298 80.2079 100.987 80.3359 100.66 80.406C100.321 80.4828 99.9737 80.522 99.6255 80.523H96.273L96.327 76.1175ZM96.327 84.375H99.7695C100.17 84.3778 100.57 84.4079 100.966 84.465C101.369 84.5176 101.762 84.6235 102.137 84.78C102.495 84.9283 102.81 85.1634 103.054 85.464C103.305 85.801 103.433 86.2142 103.415 86.634C103.431 87.0311 103.337 87.425 103.145 87.7725C102.965 88.0756 102.718 88.3341 102.424 88.5285C102.128 88.7245 101.796 88.862 101.448 88.9335C101.098 89.0107 100.74 89.0515 100.382 89.055H96.3L96.327 84.375Z" fill="white"/>
</svg>
