<svg width="38" height="38" viewBox="0 0 38 38" fill="none" xmlns="http://www.w3.org/2000/svg">
<path d="M33.7547 31.71L24.1174 22.0727C25.6129 20.1393 26.4219 17.7754 26.4219 15.2891C26.4219 12.3129 25.2603 9.52226 23.16 7.41816C21.0596 5.31406 18.2615 4.15625 15.2891 4.15625C12.3166 4.15625 9.51855 5.31777 7.41816 7.41816C5.31406 9.51855 4.15625 12.3129 4.15625 15.2891C4.15625 18.2615 5.31777 21.0596 7.41816 23.16C9.51855 25.2641 12.3129 26.4219 15.2891 26.4219C17.7754 26.4219 20.1355 25.6129 22.0689 24.1211L31.7062 33.7547C31.7345 33.783 31.7681 33.8054 31.805 33.8207C31.8419 33.836 31.8815 33.8439 31.9215 33.8439C31.9615 33.8439 32.001 33.836 32.038 33.8207C32.0749 33.8054 32.1085 33.783 32.1367 33.7547L33.7547 32.1404C33.783 32.1122 33.8054 32.0786 33.8207 32.0417C33.836 32.0048 33.8439 31.9652 33.8439 31.9252C33.8439 31.8852 33.836 31.8456 33.8207 31.8087C33.8054 31.7718 33.783 31.7382 33.7547 31.71ZM21.1672 21.1672C19.5937 22.7369 17.5082 23.6016 15.2891 23.6016C13.0699 23.6016 10.9844 22.7369 9.41094 21.1672C7.84121 19.5937 6.97656 17.5082 6.97656 15.2891C6.97656 13.0699 7.84121 10.9807 9.41094 9.41094C10.9844 7.84121 13.0699 6.97656 15.2891 6.97656C17.5082 6.97656 19.5975 7.8375 21.1672 9.41094C22.7369 10.9844 23.6016 13.0699 23.6016 15.2891C23.6016 17.5082 22.7369 19.5975 21.1672 21.1672Z" fill="white"/>
</svg>
